<?xml version="1.0" encoding="UTF-8" standalone="no"?>
<svg
   xmlns:dc="http://purl.org/dc/elements/1.1/"
   xmlns:cc="http://creativecommons.org/ns#"
   xmlns:rdf="http://www.w3.org/1999/02/22-rdf-syntax-ns#"
   xmlns:svg="http://www.w3.org/2000/svg"
   xmlns="http://www.w3.org/2000/svg"
   xmlns:sodipodi="http://sodipodi.sourceforge.net/DTD/sodipodi-0.dtd"
   xmlns:inkscape="http://www.inkscape.org/namespaces/inkscape"
   version="1.1"
   id="svg868"
   xml:space="preserve"
   width="3840.0002"
   height="1005.9261"
   viewBox="0 0 3840.0002 1005.9262"
   sodipodi:docname="horizfull.svg"
   inkscape:version="1.0.1 (c497b03c, 2020-09-10)"><metadata
     id="metadata874"><rdf:RDF><cc:Work
         rdf:about=""><dc:format>image/svg+xml</dc:format><dc:type
           rdf:resource="http://purl.org/dc/dcmitype/StillImage" /><dc:title /></cc:Work></rdf:RDF></metadata><defs
     id="defs872"><clipPath
       clipPathUnits="userSpaceOnUse"
       id="clipPath886"><path
         d="M 775.719,387.832 C 775.719,173.621 602.074,0 387.871,0 173.652,0 0,173.621 0,387.832 c 0,214.231 173.645,387.883 387.871,387.883 214.203,0 387.848,-173.652 387.848,-387.883 z"
         id="path884" /></clipPath></defs><sodipodi:namedview
     pagecolor="#ffffff"
     bordercolor="#666666"
     borderopacity="1"
     objecttolerance="10"
     gridtolerance="10"
     guidetolerance="10"
     inkscape:pageopacity="0"
     inkscape:pageshadow="2"
     inkscape:window-width="2052"
     inkscape:window-height="1089"
     id="namedview870"
     showgrid="false"
     inkscape:zoom="0.1"
     inkscape:cx="8099.664"
     inkscape:cy="-297.03684"
     inkscape:window-x="0"
     inkscape:window-y="25"
     inkscape:window-maximized="0"
     inkscape:current-layer="g890"
     inkscape:document-rotation="0" /><g
     id="g876"
     inkscape:groupmode="layer"
     inkscape:label="ink_ext_XXXXXX"
     transform="matrix(1.3333333,0,0,-1.3333333,1722.587,554.67746)"><g
       id="g878"
       transform="scale(0.1)"><g
         id="g880"
         transform="matrix(9.7257964,0,0,9.7257964,-12919.403,-3384.3651)"><g
           id="g882"
           clip-path="url(#clipPath886)"><path
             d="M 47.9531,350.156 C 18.8203,423.469 7.375,475.891 98.6875,491.262 c 10.5825,2.078 41.6995,8.965 41.6995,8.965 0,0 38.691,-179.258 -144.33622,-603.418 H 259.004 c 29.394,128.9527 19.008,432.546 -6.602,626.843 L 431.41,562.82 c 0,0 70,-517.7106 231.852,-666.011 h 125.343 l -2.449,265.425 C 660.82,283.457 541.109,490.684 529.234,582.676 l 256.922,53.847 -1.23,117.969 C 757.988,749.18 668.586,666.77 553.461,644.094 306.734,593.445 236.723,646.711 129.789,625.652 45.1406,612.59 -2.71484,565.273 -2.71484,565.273 L -160.09,374.836 -2.71484,319.531 c 15.61714,0 62.09374,1.414 50.66794,30.625 z M 810.625,-187.617 H -31.4688 V 902.148 H 810.625 V -187.617"
             style="fill:#176fc1;fill-opacity:1;fill-rule:nonzero;stroke:none"
             id="path888" /></g></g><g
         id="g890"
         transform="scale(10)"><text
           transform="scale(1,-1)"
           style="font-variant:normal;font-weight:normal;font-size:232.97px;font-family:Garamond;-inkscape-font-specification:Garamond;writing-mode:lr-tb;fill:#176fc1;fill-opacity:1;fill-rule:nonzero;stroke:none;stroke-width:9.7258"
           id="text894"
           x="-423.58615"
           y="-111.33196"><tspan
             x="-423.58615 -295.04715 -195.74677 -94.052856 -36.040039 43.808445 101.82122 203.51015 266.4144 353.54758 477.07681 566.71265 639.28583 697.29395 769.867 888.61884 961.19196 1062.8877"
             y="-111.33196"
             sodipodi:role="line"
             id="tspan892"
             style="font-style:normal;font-variant:normal;font-weight:normal;font-stretch:normal;font-family:'Adobe Garamond Pro';-inkscape-font-specification:'Adobe Garamond Pro';stroke-width:9.7258">Pacific Institute </tspan></text><text
           transform="scale(1,-1)"
           style="font-variant:normal;font-weight:normal;font-size:133.013px;font-family:Cmti12;-inkscape-font-specification:Cmti12;writing-mode:lr-tb;fill:#176fc1;fill-opacity:1;fill-rule:nonzero;stroke:none;stroke-width:9.7258"
           id="text898"
           x="1179.371"
           y="-111.33196"><tspan
             x="1179.371 1224.03 1295.3302 1354.9291 1406.2841 1454.3336 1525.6245"
             y="-111.33196"
             sodipodi:role="line"
             id="tspan896"
             style="font-style:normal;font-variant:normal;font-weight:normal;font-stretch:normal;font-family:cmti12;-inkscape-font-specification:cmti12;stroke-width:9.7258">for the</tspan></text><text
           transform="scale(1,-1)"
           style="font-variant:normal;font-weight:normal;font-size:232.97px;font-family:Garamond;-inkscape-font-specification:Garamond;writing-mode:lr-tb;fill:#176fc1;fill-opacity:1;fill-rule:nonzero;stroke:none;stroke-width:9.7258"
           id="text902"
           x="-423.58615"
           y="121.6388"><tspan
             x="-423.58615 -229.40773 -134.7616 -66.851959 52.023411 149.05347 328.67316 423.31921 491.22885 544.57892 641.60895 736.25488 789.60498 847.84753 959.44006 1056.4746 1109.8248 1206.8547 1325.7303 1422.7603 1519.7997"
             y="121.6388"
             sodipodi:role="line"
             id="tspan900"
             style="font-style:normal;font-variant:normal;font-weight:normal;font-stretch:normal;font-family:'Adobe Garamond Pro';-inkscape-font-specification:'Adobe Garamond Pro';stroke-width:9.7258">Mathematical Sciences</tspan></text></g></g></g></svg>
